<svg width="222" height="324" viewBox="0 0 222 324" fill="none" xmlns="http://www.w3.org/2000/svg">
<path fill-rule="evenodd" clip-rule="evenodd" d="M213.346 280.045C212.21 273.632 211.169 267.202 210.221 260.758C209.773 257.697 209.335 254.635 208.94 251.569C208.664 249.42 208.244 246.961 209.707 245.37C211.765 243.13 213.634 241.212 213.887 238.003C214.125 234.985 213.103 231.693 212.465 228.762C211.125 222.617 209.458 216.546 207.616 210.534C205.743 204.426 203.69 198.374 201.609 192.335C199.662 186.689 197.791 180.99 195.256 175.573C190.446 165.292 182.306 157.677 172.247 152.594C169.746 151.328 164.642 146.815 162.028 145.805C159.625 144.875 159.635 147.588 157.269 146.567C155.379 145.749 153.618 144.661 152.559 142.835C151.41 140.855 148.528 138.084 148.09 135.777C147.159 130.889 148.167 126.728 144.677 123.048C141.579 119.782 137.414 117.544 133.104 116.342C123.624 113.699 110.982 115.547 105.262 124.353C102.53 128.558 101.576 133.64 97.8896 137.071C94.6708 140.068 95.3911 142.117 91.2222 143.661C90.9861 143.749 84.5862 142.377 84.35 142.465C79.7894 141.489 75.4304 144.219 71.2463 145.805C65.0084 148.166 59.0696 151.241 53.4902 154.895C42.2396 162.263 32.6036 171.832 24.6595 182.659C16.6497 193.575 10.435 205.811 6.0099 218.601C4.93527 221.707 3.97002 224.85 3.11854 228.025C2.6419 229.802 2.13273 231.644 2.71303 233.464C3.18764 234.953 4.2434 236.06 5.4832 236.953C7.16374 238.163 10.5348 238.95 10.469 241.384C10.419 243.236 9.79065 245.183 9.48408 247.014C9.11918 249.191 8.81917 251.382 8.51934 253.57C7.15532 263.529 6.09366 273.544 5.6241 283.587C5.16179 293.476 4.77835 303.568 5.46449 313.453C5.51 314.105 5.70433 314.704 6.01816 315.209C5.72523 315.321 5.70264 315.867 6.06703 315.944C6.32237 315.998 6.57721 316.052 6.83256 316.106C7.36296 316.507 8.02449 316.753 8.78563 316.777C9.30171 316.794 9.81745 316.817 10.333 316.844C15.7728 317.98 21.2115 319.054 26.7223 319.866C33.4209 320.856 40.1394 321.661 46.8785 322.315C60.7265 323.662 74.4655 323.215 88.3317 322.49C102.177 321.766 116.013 321.595 129.872 321.956C143.745 322.317 157.611 322.92 171.485 323.168C186.986 323.443 202.462 323.02 217.919 321.788C220.037 321.619 221.349 319.934 220.931 317.83C218.426 305.225 215.588 292.704 213.346 280.045Z" fill="#D08B5B"/>
<path fill-rule="evenodd" clip-rule="evenodd" d="M71.2463 145.804L71.549 145.687C75.6406 144.09 79.8993 141.513 84.35 142.463C84.5075 142.406 87.4035 142.996 89.3873 143.37L87.5043 145.333L84.1817 145.974C95.6448 164.884 109.202 174.34 124.854 174.34C140.507 174.34 152.384 164.884 160.486 145.974L161.592 145.667C161.728 145.699 161.873 145.745 162.028 145.804C164.642 146.815 169.746 151.329 172.247 152.593C182.306 157.676 190.446 165.291 195.256 175.572C197.707 180.808 199.537 186.308 201.415 191.769L201.609 192.335C203.69 198.374 205.743 204.425 207.616 210.534C209.377 216.285 210.98 222.088 212.288 227.96L212.465 228.762C213.103 231.693 214.125 234.983 213.887 238.003C213.798 239.146 213.503 240.125 213.066 241.014L190.394 249.169L201.196 322.809C191.301 323.232 181.397 323.342 171.485 323.167C157.611 322.921 143.745 322.317 129.872 321.956C116.433 321.606 103.015 321.754 89.5904 322.425L86.1811 322.599C73.0438 323.256 60.0102 323.591 46.8785 322.315L45.9837 322.228L45.9836 311.456L50.5964 251.473L27.2197 247.076L4.27203 235.934C3.57881 235.241 3.02245 234.434 2.71301 233.463C2.17553 231.779 2.57278 230.074 3.01285 228.418L3.11852 228.024C3.97 224.85 4.93525 221.705 6.00988 218.599C10.435 205.812 16.6497 193.576 24.6595 182.659C32.6036 171.832 42.2396 162.264 53.4901 154.895C59.0696 151.241 65.0084 148.167 71.2463 145.804Z" fill="white"/>
<path fill-rule="evenodd" clip-rule="evenodd" d="M80.0259 142.155C81.4594 142.093 82.921 142.324 84.3509 142.465C84.4754 142.477 84.5228 142.669 84.3824 142.698C81.8232 143.232 79.2921 143.964 76.7784 144.707L75.7023 145.025C72.8679 145.863 70.1166 146.728 67.3725 147.845C61.9038 150.073 56.71 153.08 51.9298 156.535C33.5225 169.838 20.2002 189.979 11.7929 210.833C9.50986 216.496 7.57532 222.301 6.00838 228.201C5.6273 229.637 5.26881 231.078 4.92886 232.525C4.82908 232.949 4.39424 234.035 4.63273 234.47C4.84358 234.852 5.66303 235.09 6.04377 235.289L7.32925 235.954C9.83683 237.247 14.0135 239.371 14.4323 239.576L15.0856 239.898C25.7702 245.135 37.1865 249.574 49.21 249.881L49.3042 248.855C49.8402 243.182 50.5437 237.476 52.0791 231.977C52.1617 231.682 52.5379 231.781 52.5723 232.044C53.4276 238.555 53.1543 245.116 52.8558 251.658C52.3274 263.242 51.6256 274.82 51.002 286.401C50.6896 292.194 50.286 297.983 49.9216 303.773C49.5567 309.574 49.4386 315.515 48.6053 321.269C48.4195 322.552 46.9166 323.248 45.7786 323.113C44.5195 322.963 43.5508 321.856 43.5448 320.585C43.5296 317.233 43.951 313.842 44.1852 310.498C44.4075 307.321 44.6462 304.145 44.8909 300.972C45.7849 289.384 46.8133 277.809 47.7644 266.226C48.1015 262.119 48.4657 258.015 48.8406 253.911C36.1036 253.5 24.2041 248.784 12.8524 243.274C12.6881 247.004 12.2913 250.726 11.9072 254.44C10.8348 264.802 9.88925 275.163 9.18154 285.558C8.82406 290.808 8.56399 296.065 8.33747 301.322C8.22607 303.906 8.13539 306.491 8.06578 309.077C8.04236 309.938 8.02145 310.799 8.00274 311.662L7.96398 313.636C7.9323 314.887 7.80505 316.046 6.75216 316.956C5.68259 317.882 4.23783 317.93 3.17921 316.956C1.76227 315.652 2.01273 313.875 2.05469 312.124C2.08975 310.646 2.13172 309.168 2.18043 307.691C2.27818 304.737 2.40307 301.784 2.55493 298.831C3.08652 288.511 4.14867 278.23 5.53679 267.993L6.07849 264.04C7.09042 256.692 8.20129 249.178 10.4633 242.101C9.5825 241.663 8.70439 241.221 7.82948 240.778C6.27771 239.993 4.67335 239.256 3.16489 238.39C1.96823 237.702 0.936075 236.758 0.603034 235.366C0.231396 233.816 0.799553 232.12 1.17709 230.607L1.20979 230.473C1.57991 228.95 1.97835 227.433 2.39886 225.923C4.10401 219.8 6.21232 213.794 8.67979 207.936C13.6205 196.207 19.9975 185.065 27.7872 174.991C34.7989 165.921 43.0821 157.698 52.7902 151.53C57.5362 148.514 62.594 146.038 67.9431 144.287C70.4432 143.47 73.1635 142.757 75.7812 142.465C77.1932 142.307 78.6071 142.216 80.0259 142.155ZM105.423 123.57C107.127 121.741 110.511 123.634 109.693 126.054C107.769 131.751 104.706 136.946 99.9248 140.689C95.4307 144.208 90.0716 146.493 84.3002 146.005C84.2557 146.001 84.2171 145.99 84.1829 145.974L84.6802 146.649C88.585 151.927 92.7044 157.135 97.6693 161.45C107.785 170.243 121.559 174.986 134.859 171.611C145.322 168.959 154.542 160.686 157.252 150.146C156.864 150.319 156.402 150.38 155.895 150.269C153.726 149.799 151.579 147.518 150.18 145.883C148.666 144.114 147.483 142.204 146.617 140.045C145.032 136.093 144.523 131.006 146.687 127.178C146.955 126.707 147.571 126.971 147.624 127.431L147.705 128.151C148.123 131.738 148.644 135.208 150.336 138.478C151.164 140.079 152.157 141.639 153.365 142.979C154.011 143.697 154.712 144.382 155.468 144.983C156.207 145.57 157.098 145.993 157.759 146.665L157.88 146.793L157.884 146.77C158.051 145.351 159.047 144.725 160.023 144.764C160.966 144.801 162.074 145.218 162.503 145.416L162.544 145.435C169.126 148.594 175.186 152.709 180.892 157.275C192.688 166.72 201.526 179.066 205.809 193.606C207.911 200.741 209.116 208.094 210.39 215.412L211.174 219.896C212.362 226.653 213.688 233.541 216.372 239.826C217.066 241.452 216.53 242.976 214.829 243.616C212.704 244.414 210.572 245.187 208.437 245.951C209.485 250.447 210.125 255.101 210.911 259.62C212.581 269.227 214.627 278.771 216.382 288.365C217.278 293.271 218.089 298.192 218.984 303.099C219.415 305.46 219.867 307.819 220.304 310.181C220.54 311.455 220.754 312.733 220.979 314.007L221.018 314.219C221.148 314.892 221.31 315.588 221.124 316.26C220.914 317.027 220.314 317.57 219.779 318.121C219.338 318.574 218.701 318.576 218.161 318.33L217.984 318.247C217.02 317.797 216.265 317.347 215.923 316.26C215.707 315.572 215.628 314.797 215.487 314.088C215.215 312.727 214.959 311.367 214.715 310.002C214.229 307.272 213.756 304.538 213.292 301.804L212.859 299.242C211.374 290.417 209.964 281.537 209.251 272.618C208.934 268.66 208.598 264.708 208.26 260.754L208.005 257.787C207.685 254.034 207.292 250.185 207.236 246.38L205.959 246.834L199.728 249.035C198.182 249.581 196.215 250.699 194.552 250.496C193.74 250.397 193.118 250.141 192.639 249.674C193.214 257.769 193.989 265.851 195.026 273.888C195.966 281.205 197.011 288.51 198.245 295.782C198.855 299.382 199.482 302.981 200.164 306.569C200.505 308.362 200.857 310.154 201.22 311.944C201.4 312.837 201.616 313.732 201.755 314.632C201.917 315.663 201.632 316.297 201.056 317.145C200.584 317.843 199.637 318.2 198.87 317.72C197.854 317.081 197.323 316.53 197.024 315.369C196.751 314.313 196.586 313.213 196.377 312.144C195.988 310.174 195.614 308.2 195.251 306.223C194.495 302.089 193.795 297.946 193.173 293.79C190.975 279.15 189.582 264.386 188.877 249.6C188.53 242.303 188.422 235 188.484 227.698C188.516 223.954 188.638 220.201 188.904 216.466C189.172 212.685 189.73 208.982 190.229 205.237C190.246 205.106 190.431 205.099 190.439 205.237C190.675 209.436 191.045 213.628 191.227 217.836C191.398 221.851 191.474 225.872 191.613 229.889C191.793 235.169 192.044 240.453 192.376 245.732C192.976 245.076 193.881 244.697 194.788 244.845C196.099 244.569 197.512 243.881 198.764 243.463L203.48 241.889C205.959 241.061 208.438 240.239 210.926 239.442C208.701 231.96 207.178 224.369 205.876 216.666L205.297 213.201C204.147 206.384 202.908 199.561 200.828 192.957C198.641 186.015 195.368 179.562 191.026 173.717C186.745 167.956 181.537 162.884 176.176 158.14C171.586 154.078 166.675 150.412 161.994 146.461C162.043 146.724 162.053 147.013 162.01 147.329C161.015 154.611 157.215 161.393 151.917 166.437C141.277 176.572 125.525 178.673 111.907 173.922C98.7332 169.324 87.0858 158.438 82.9707 144.968C82.9002 144.737 83.2092 144.646 83.3332 144.815C83.5614 145.128 83.7908 145.44 84.0205 145.754C84.005 145.629 84.0696 145.494 84.223 145.435C89.0243 143.581 93.7391 140.953 97.3382 137.235C99.0923 135.424 100.623 133.369 101.832 131.156C102.411 130.094 102.931 128.997 103.346 127.861L103.451 127.568C103.954 126.145 104.374 124.696 105.423 123.57Z" fill="black"/>
<path fill-rule="evenodd" clip-rule="evenodd" d="M176.26 74.7182C176.149 68.4071 176.026 61.97 175.089 55.7202C174.173 49.6102 171.654 44.0874 167.326 39.6506C158.13 30.2262 144.803 27.9243 132.397 25.8148L111.185 22.208C104.714 21.1077 97.8107 19.3493 91.2727 20.9095C88.051 21.6782 85.3153 23.4643 82.8146 25.5775C80.4044 27.6143 77.8131 29.8017 76.1799 32.542C74.544 35.2862 73.9812 38.4941 73.4493 41.5978C72.8495 45.0971 72.3835 48.6237 72.0524 52.1587C71.389 59.2411 71.2984 66.3768 71.7796 73.4739C72.0128 76.9162 72.3838 80.3487 72.8574 83.7659C73.0922 85.4605 73.3576 87.151 73.6575 88.8352C73.7458 89.3319 73.813 89.8819 73.9035 90.4374C73.2344 92.3436 72.8542 94.3176 72.8849 96.2831C72.9752 102.073 77.8539 105.718 82.7723 107.675C85.624 108.81 88.6054 109.581 91.4074 110.849C94.3551 112.182 96.3614 114.344 98.3768 116.809C102.221 121.513 106.558 125.74 111.511 129.266C122.013 136.743 135.313 140.281 148.054 137.596C151.11 136.952 154.194 135.951 156.943 134.444C159.844 132.855 162.027 130.549 163.859 127.824C167.26 122.762 169.699 117.065 171.544 111.267C173.427 105.353 174.763 99.4275 175.492 93.2603C176.218 87.113 176.371 80.9034 176.26 74.7182Z" fill="#D08B5B"/>
<path fill-rule="evenodd" clip-rule="evenodd" d="M108.575 0.223394C117.352 -0.986071 129.467 2.94469 133.839 10.8706C154.708 5.94223 181.03 5.78076 198.231 22.1874C216.179 41.6491 193.635 67.3096 178.687 73.095C179.776 78.3933 178.079 112.336 166.072 127.478C156.541 140.305 134.35 146.226 124.081 130.902L124 130.776C122.901 129.008 123.848 129.064 124.977 130.38C135.033 139.239 148.705 139.39 159.241 130.041C178.985 112.954 176.949 71.0605 167.553 46.8239C140.799 43.8804 112.154 52.0032 93.675 72.1769L94.9246 79.7123C95.1374 80.9961 95.3793 82.2789 95.5638 83.5671C95.6818 84.3926 95.6951 85.2136 95.1243 85.8817C93.2391 88.0876 90.0619 84.7729 87.4478 83.4545C86.6761 83.3458 85.903 83.3038 85.1447 83.3573C72.585 84.9778 75.0596 109.383 88.8636 105.105C90.0233 104.381 91.0198 104.602 91.4698 105.653C94.7601 108.672 96.9295 114.057 102.396 119.241C104.325 121.188 106.08 122.814 108.249 124.375C109.524 125.666 113.369 126.982 112.15 129.192C109.845 134.218 96.2523 118.429 93.8491 114.062C86.3194 117.04 77.975 116.028 70.172 115.3C29.0067 113.157 34.5022 69.6903 68.2444 42.2476C74.5959 37.5636 81.6036 33.7427 88.888 30.8023C89.8824 30.4009 89.4479 28.7653 88.4394 29.1723C83.6195 31.1182 78.9207 33.4341 74.4417 36.1148L74.4349 34.5121C74.4284 31.8129 74.4707 29.0028 74.9387 26.5365C75.1727 24.8276 75.5662 23.0023 76.172 21.6292C76.921 17.4195 88.6529 2.96947 108.575 0.223394ZM84.5957 88.9601C85.2313 88.3552 86.4179 89.0764 86.9838 89.0584C88.4308 89.2568 89.8054 89.8689 90.8775 90.6245C91.5854 91.0217 92.0816 91.3947 92.496 91.7379L92.5073 91.7347C92.5043 91.7347 92.4994 91.737 92.496 91.7379L92.536 91.765C93.1395 92.1946 95.3493 94.6144 93.9533 93.9637C93.8491 93.8282 93.7426 93.698 93.635 93.5705C93.6236 93.5878 93.6076 93.605 93.5883 93.6217L93.6669 93.7383C94.8534 95.5262 92.8048 93.6426 92.4896 93.1422C92.4746 93.1543 92.4578 93.1624 92.4412 93.1712L92.8517 93.6716C92.9091 93.7427 92.9541 93.7993 92.9915 93.8474L93.0782 93.931C94.4501 95.2818 94.4929 96.4974 92.899 94.5003C92.9619 94.5945 93.0121 94.6941 93.0192 94.7826L93.1136 94.9033C94.365 96.5186 93.3472 95.9449 92.7252 95.255L92.6733 95.1957L92.6839 95.2117C93.2624 96.1045 92.1146 95.4782 91.9117 95.0005L91.9033 94.979C91.6821 94.7985 91.5461 94.5957 91.4996 94.5445L91.4908 94.5359C90.4149 93.4316 88.8552 92.497 87.5302 92.0724C87.3381 92.0359 87.1438 92.0065 86.9474 91.9858C86.1507 91.8077 85.3452 91.6856 84.5314 91.6197C84.4317 91.6079 84.3308 91.5348 84.2554 91.4401C83.0247 91.3984 83.4046 90.8931 83.9152 90.7993L83.9241 90.7977L83.8228 90.7892C83.033 90.712 82.4937 90.4281 83.2922 90.2539L83.3934 90.2338C83.381 90.2143 83.3701 90.1949 83.3595 90.1755C82.6754 90.1002 83.1218 89.4342 83.5014 89.5954C83.3416 89.0722 84.0717 89.3333 84.1629 89.2556C84.2324 89.1784 84.3186 89.1103 84.3685 89.1066C84.5885 88.951 84.4818 88.9652 84.5957 88.9601ZM88.7802 80.4898L88.6199 80.5835C88.4901 80.6594 88.3568 80.7098 88.223 80.7394C88.4119 80.82 88.5986 80.907 88.7835 81C88.7805 80.8864 88.7783 80.7728 88.7783 80.6596L88.7802 80.4898Z" fill="black"/>
<path fill-rule="evenodd" clip-rule="evenodd" d="M144.663 115.211C142.769 114.438 141.078 113.15 139.843 111.503C139.413 110.931 139.302 110.327 139.393 109.774C139.494 109.153 139.862 108.589 140.364 108.211C140.866 107.832 141.496 107.645 142.105 107.741C142.632 107.823 143.16 108.113 143.576 108.713L143.664 108.833C144.399 109.827 145.356 110.642 146.446 111.167C147.498 111.674 148.675 111.91 149.891 111.773C152.209 111.511 153.807 110.258 155.504 108.557C155.715 108.342 155.925 108.12 156.136 107.895C156.271 107.691 156.456 107.56 156.662 107.491C156.891 107.415 157.149 107.419 157.387 107.502C157.614 107.581 157.818 107.733 157.956 107.933C158.086 108.125 158.16 108.361 158.135 108.632C157.98 110.395 157.058 111.969 155.748 113.204C154.294 114.578 152.364 115.527 150.549 115.86C148.548 116.226 146.511 115.963 144.663 115.211ZM151.493 88.0083C153.621 89.3014 156.864 92.3166 154.574 95.5225C151.879 98.3491 147.999 95.108 146.087 93.6424C144.314 92.5064 142.322 95.4279 143.967 96.7543C157.783 106.98 163.39 88.3464 152.57 86.4879C151.378 86.2831 150.935 87.6082 151.493 88.0083ZM126.732 76.1141C126.968 73.1964 131.412 72.5339 131.856 75.421C132.252 78.0071 131.785 80.3829 130.62 82.7113C129.506 84.9358 126.707 83.898 126.496 81.8725C126.211 79.1573 126.587 77.9289 126.732 76.1141ZM160.57 74.822C161.191 74.0108 162.086 73.4568 163.158 73.7698C166.508 74.7484 165.521 79.5018 164.344 81.8155C163.705 83.072 161.639 83.3906 160.705 82.2842C159.183 80.4802 158.453 76.8772 160.388 75.1001C160.441 75.0082 160.5 74.9155 160.57 74.822ZM130.573 63.3474L131.102 63.2547C132.739 62.9717 134.773 62.6999 135.931 64.0154C136.546 64.7128 136.757 66.0094 135.931 66.677C134.48 67.8517 132.874 67.3965 131.134 67.4959C129.7 67.5782 128.321 67.8155 126.941 68.2101C123.911 69.0759 121.441 70.6563 118.853 72.3916C118.514 72.6193 118.167 72.1851 118.329 71.8676C119.823 68.9425 122.719 66.5398 125.618 65.0752C127.167 64.2933 128.861 63.6449 130.573 63.3474ZM157.516 62.0372L157.921 62.1199C162.328 63.0408 168.055 64.8803 170.142 69.2073C170.221 69.8191 170.137 69.9503 170.069 70.0361L170.046 70.0645C169.99 70.1377 169.945 70.2385 169.68 70.3219C169.606 70.3042 169.532 70.2857 169.456 70.2659C168.5 70.0155 167.744 69.6701 167.01 69.312L166.215 68.9208C165.295 68.4689 164.364 68.0336 163.378 67.7122C161.275 67.0266 159.112 66.5435 156.915 66.2856C156.439 66.2297 155.981 66.0691 155.619 65.7938C155.276 65.5326 155.014 65.1707 154.894 64.6899C154.739 64.0676 154.784 63.5964 155.118 63.0349C155.369 62.6132 155.728 62.321 156.141 62.1533C156.562 61.9822 157.041 61.9418 157.516 62.0372Z" fill="black"/>
<path fill-rule="evenodd" clip-rule="evenodd" d="M179.24 93.823C178.306 92.5697 176.627 90.9247 174.929 91.0132C174.713 91.0243 174.63 91.2596 174.762 91.4187C175.316 92.0969 176.076 92.5791 176.633 93.2713C177.292 94.0906 177.767 95.0786 178.075 96.0779C178.525 97.5296 178.648 99.1725 178.249 100.649C177.543 103.251 175.311 105.158 172.877 106.132C170.467 107.096 167.568 107.425 165.288 106.013C161.925 103.927 159.072 100.921 154.843 100.862C153.856 100.848 153.158 101.301 152.743 101.947C152.325 101.324 151.638 100.883 150.674 100.872C145.934 100.819 142.396 104.08 138.419 106.114C135.73 107.488 132.252 107.061 129.478 106.153C126.862 105.297 124.022 103.578 123.034 100.863C122.49 99.3636 122.611 97.613 123.171 96.135C123.538 95.163 124.106 94.2241 124.809 93.4604C125.537 92.6683 126.496 92.17 127.241 91.419C127.394 91.2655 127.273 91.0268 127.074 91.0132C123.904 90.7981 121.042 94.5811 120.443 97.3256C119.854 100.028 120.733 102.724 122.512 104.787C126.129 108.98 132.825 110.363 138.038 109.131C142.256 108.133 146.263 105.837 150.674 106.167C151.641 106.239 152.334 105.836 152.753 105.225C153.173 105.854 153.871 106.265 154.843 106.171C158.954 105.773 162.623 108.682 166.613 109.393C169.79 109.958 173.221 109.196 175.943 107.485C178.788 105.697 180.79 102.829 180.922 99.4091C180.998 97.4419 180.421 95.4066 179.24 93.823Z" fill="black"/>
</svg>
