<svg width="34" height="32" viewBox="0 0 34 32" fill="none" xmlns="http://www.w3.org/2000/svg">
<g clip-path="url(#clip0_202_49)">
<path d="M10.5834 8.1187C9.58698 8.1187 8.86362 8.8058 8.86362 9.75253C8.86362 10.6993 9.57257 11.3854 10.5492 11.3854C11.0164 11.4006 11.4704 11.2298 11.8118 10.9105C11.9655 10.7584 12.0869 10.5767 12.1685 10.3764C12.2501 10.1761 12.2902 9.96134 12.2865 9.74508C12.2637 8.78751 11.5635 8.1187 10.5834 8.1187Z" fill="#FF734F"/>
<path d="M11.3677 10.4546C11.1446 10.6565 10.8509 10.7623 10.5503 10.7489C9.93342 10.7489 9.5027 10.3398 9.5027 9.75407C9.5027 9.15842 9.93762 8.75813 10.5846 8.75813C11.2173 8.75813 11.6351 9.1521 11.6493 9.75422C11.6519 9.88391 11.6283 10.0128 11.5799 10.1331C11.5315 10.2535 11.4593 10.3628 11.3677 10.4546Z" fill="#FF734F"/>
<path d="M12.0359 11.9254H9.16887V22.4663H12.0359V11.9254Z" fill="#FF734F"/>
<path d="M9.80916 12.5619H11.4004V21.8269H9.80916V12.5619Z" fill="#FF734F"/>
<path d="M19.5971 11.9254C18.2676 11.9254 17.4535 12.3842 16.9819 12.8156L16.8923 11.9254H13.6486V22.4662H16.8254V16.9261C16.8384 16.632 16.8914 16.341 16.9827 16.0612C17.3665 15.2346 17.8843 15.2346 18.6683 15.2346C19.5714 15.2346 20.3342 16.0815 20.3342 17.0837V22.4662H23.5241V16.5104C23.5241 13.3601 21.4883 11.9254 19.5971 11.9254Z" fill="#FF734F"/>
<path d="M22.8847 21.8269H20.9709V17.0825C20.9709 15.7342 19.9158 14.5952 18.667 14.5952C17.8657 14.5952 16.9577 14.5952 16.4026 15.7912C16.2714 16.1552 16.1983 16.5376 16.1861 16.9243V21.8264H14.2852V12.5621H16.3142L16.4437 13.8521H16.9663L17.0597 13.7013C17.2725 13.3588 17.9454 12.5619 19.5951 12.5619C21.179 12.5619 22.8839 13.7971 22.8839 16.5091L22.8847 21.8269Z" fill="#FF734F"/>
<path d="M27.3496 1.14297H5.74768C3.46687 1.14297 1.6179 2.99194 1.6179 5.27275V26.1862C1.6179 28.467 3.46687 30.316 5.74768 30.316H27.3496C29.6304 30.316 31.4794 28.467 31.4794 26.1862V5.27275C31.4794 2.99194 29.6304 1.14297 27.3496 1.14297Z" stroke="#FF734F" stroke-width="1.90605"/>
</g>
<defs>
<clipPath id="clip0_202_49">
<rect width="33.0382" height="31.7675" fill="white" transform="translate(0.029541 0.0209961)"/>
</clipPath>
</defs>
</svg>
